<svg width="42" height="41" viewBox="0 0 42 41" fill="none" xmlns="http://www.w3.org/2000/svg">
<g clip-path="url(#clip0_2_278)">
<path d="M10.4396 0C9.61589 0 8.94818 0.652637 8.94818 1.45774V4.37312H11.9309V1.45774C11.9309 0.652637 11.2632 0 10.4396 0Z" fill="#F5F5FC"/>
<path d="M31.3185 0C30.4949 0 29.8271 0.652637 29.8271 1.45774V4.37312H32.8098V1.45774C32.8099 0.652637 32.1422 0 31.3185 0Z" fill="#F5F5FC"/>
<path d="M37.284 4.37311H32.81V10.204C32.81 11.0091 32.1423 11.6617 31.3186 11.6617C30.4949 11.6617 29.8272 11.0091 29.8272 10.204V4.37311H11.9309V10.204C11.9309 11.0091 11.2632 11.6617 10.4395 11.6617C9.61578 11.6617 8.94808 11.0091 8.94808 10.204V4.37311H4.47408C2.00311 4.37311 0 6.33102 0 8.74623V36.4427C0 38.8579 2.00311 40.8158 4.47408 40.8158H37.284C39.755 40.8158 41.7581 38.8579 41.7581 36.4427V8.74623C41.7581 6.33102 39.755 4.37311 37.284 4.37311ZM38.7753 36.4427C38.7753 37.2478 38.1076 37.9004 37.284 37.9004H4.47408C3.6504 37.9004 2.98269 37.2478 2.98269 36.4427V17.4925H38.7753V36.4427Z" fill="#F5F5FC"/>
<path d="M11.9309 20.4078H8.94818C8.12449 20.4078 7.45679 21.0605 7.45679 21.8656C7.45679 22.6707 8.12449 23.3233 8.94818 23.3233H11.9309C12.7546 23.3233 13.4223 22.6707 13.4223 21.8656C13.4223 21.0605 12.7546 20.4078 11.9309 20.4078Z" fill="#F5F5FC"/>
<path d="M22.3704 20.4078H19.3877C18.564 20.4078 17.8963 21.0605 17.8963 21.8656C17.8963 22.6707 18.564 23.3233 19.3877 23.3233H22.3704C23.1941 23.3233 23.8618 22.6707 23.8618 21.8656C23.8618 21.0605 23.1941 20.4078 22.3704 20.4078Z" fill="#F5F5FC"/>
<path d="M32.81 20.4078H29.8273C29.0036 20.4078 28.3359 21.0605 28.3359 21.8656C28.3359 22.6707 29.0036 23.3233 29.8273 23.3233H32.81C33.6336 23.3233 34.3013 22.6707 34.3013 21.8656C34.3013 21.0605 33.6336 20.4078 32.81 20.4078Z" fill="#F5F5FC"/>
<path d="M11.9309 26.2387H8.94818C8.12449 26.2387 7.45679 26.8913 7.45679 27.6964C7.45679 28.5015 8.12449 29.1542 8.94818 29.1542H11.9309C12.7546 29.1542 13.4223 28.5015 13.4223 27.6964C13.4223 26.8913 12.7546 26.2387 11.9309 26.2387Z" fill="#F5F5FC"/>
<path d="M22.3704 26.2387H19.3877C18.564 26.2387 17.8963 26.8913 17.8963 27.6964C17.8963 28.5015 18.564 29.1542 19.3877 29.1542H22.3704C23.1941 29.1542 23.8618 28.5015 23.8618 27.6964C23.8618 26.8913 23.1941 26.2387 22.3704 26.2387Z" fill="#F5F5FC"/>
<path d="M32.81 26.2387H29.8273C29.0036 26.2387 28.3359 26.8913 28.3359 27.6964C28.3359 28.5015 29.0036 29.1542 29.8273 29.1542H32.81C33.6336 29.1542 34.3013 28.5015 34.3013 27.6964C34.3013 26.8913 33.6336 26.2387 32.81 26.2387Z" fill="#F5F5FC"/>
<path d="M11.9309 32.0695H8.94818C8.12449 32.0695 7.45679 32.7222 7.45679 33.5273C7.45679 34.3324 8.12449 34.9849 8.94818 34.9849H11.9309C12.7546 34.9849 13.4223 34.3323 13.4223 33.5272C13.4223 32.7221 12.7546 32.0695 11.9309 32.0695Z" fill="#F5F5FC"/>
<path d="M22.3704 32.0695H19.3877C18.564 32.0695 17.8963 32.7222 17.8963 33.5272C17.8963 34.3323 18.564 34.985 19.3877 34.985H22.3704C23.1941 34.985 23.8618 34.3323 23.8618 33.5272C23.8618 32.7222 23.1941 32.0695 22.3704 32.0695Z" fill="#F5F5FC"/>
<path d="M32.81 32.0695H29.8273C29.0036 32.0695 28.3359 32.7222 28.3359 33.5272C28.3359 34.3323 29.0036 34.985 29.8273 34.985H32.81C33.6336 34.985 34.3013 34.3323 34.3013 33.5272C34.3013 32.7222 33.6336 32.0695 32.81 32.0695Z" fill="#F5F5FC"/>
</g>
<defs>
<clipPath id="clip0_2_278">
<rect width="41.7581" height="40.8158" fill="white"/>
</clipPath>
</defs>
</svg>
