<svg width="388" height="410" viewBox="0 0 388 410" fill="none" xmlns="http://www.w3.org/2000/svg">
<path d="M0.749663 75.7034C4.63541 168.678 7.21793 219.33 15.626 295.781C22.7385 325.016 30.2623 337.112 54.6762 345.364C151.905 371.289 220.11 392.046 299.205 409.734C331.409 409.013 342.889 401.176 353.132 383.638C370.634 321.78 373.907 254.051 386.603 167.91C388.305 134.689 381.266 121.197 353.132 107.019C250.06 66.5866 100.235 11.3329 100.235 11.3329C100.235 11.3329 71.5961 -1.53943 54.6762 1.76429C34.8877 7.56108 26.2789 13.9796 15.626 26.9906C3.33609 42.3426 0.1172 53.0176 0.749663 75.7034Z" fill="white" stroke="#C4C4C4" stroke-width="0.5"/>
</svg>
