<svg width="31" height="41" viewBox="0 0 31 41" fill="none" xmlns="http://www.w3.org/2000/svg">
<g clip-path="url(#clip0_2_321)">
<path d="M22.957 20.5159H8.08376V25.4053H22.957V20.5159ZM29.8513 8.97998L22.2675 1.49309C21.9189 1.14931 21.4464 0.958313 20.9506 0.958313H20.4781V10.7371H30.3936V10.2711C30.3936 9.78978 30.1999 9.32376 29.8513 8.97998ZM17.9992 11.3483V0.958313H2.50631C1.47603 0.958313 0.647156 1.77576 0.647156 2.79184V38.24C0.647156 39.256 1.47603 40.0735 2.50631 40.0735H28.5344C29.5647 40.0735 30.3936 39.256 30.3936 38.24V13.1818H19.8584C18.8358 13.1818 17.9992 12.3567 17.9992 11.3483ZM5.60489 6.45888C5.60489 6.12121 5.88221 5.84771 6.22461 5.84771H12.4218C12.7642 5.84771 13.0415 6.12121 13.0415 6.45888V7.68123C13.0415 8.01891 12.7642 8.29241 12.4218 8.29241H6.22461C5.88221 8.29241 5.60489 8.01891 5.60489 7.68123V6.45888ZM5.60489 11.3483C5.60489 11.0106 5.88221 10.7371 6.22461 10.7371H12.4218C12.7642 10.7371 13.0415 11.0106 13.0415 11.3483V12.5706C13.0415 12.9083 12.7642 13.1818 12.4218 13.1818H6.22461C5.88221 13.1818 5.60489 12.9083 5.60489 12.5706V11.3483ZM25.4358 34.5729C25.4358 34.9106 25.1585 35.1841 24.8161 35.1841H18.6189C18.2766 35.1841 17.9992 34.9106 17.9992 34.5729V33.3506C17.9992 33.0129 18.2766 32.7394 18.6189 32.7394H24.8161C25.1585 32.7394 25.4358 33.0129 25.4358 33.3506V34.5729ZM25.4358 19.2935V26.6276C25.4358 27.303 24.8812 27.85 24.1964 27.85H6.84432C6.15954 27.85 5.60489 27.303 5.60489 26.6276V19.2935C5.60489 18.6182 6.15954 18.0712 6.84432 18.0712H24.1964C24.8812 18.0712 25.4358 18.6182 25.4358 19.2935Z" fill="white"/>
</g>
<defs>
<clipPath id="clip0_2_321">
<rect width="29.7464" height="39.1152" fill="white" transform="translate(0.647156 0.958313)"/>
</clipPath>
</defs>
</svg>
