<svg width="43" height="35" viewBox="0 0 43 35" fill="none" xmlns="http://www.w3.org/2000/svg">
<g clip-path="url(#clip0_2_317)">
<path d="M6.3525 15.1063C8.68837 15.1063 10.5875 13.1708 10.5875 10.7902C10.5875 8.40961 8.68837 6.47411 6.3525 6.47411C4.01663 6.47411 2.1175 8.40961 2.1175 10.7902C2.1175 13.1708 4.01663 15.1063 6.3525 15.1063ZM35.9975 15.1063C38.3334 15.1063 40.2325 13.1708 40.2325 10.7902C40.2325 8.40961 38.3334 6.47411 35.9975 6.47411C33.6616 6.47411 31.7625 8.40961 31.7625 10.7902C31.7625 13.1708 33.6616 15.1063 35.9975 15.1063ZM38.115 17.2643H33.88C32.7154 17.2643 31.6632 17.7432 30.8956 18.5187C33.5624 20.0091 35.4549 22.6999 35.8652 25.8965H40.2325C41.4037 25.8965 42.35 24.9321 42.35 23.7385V21.5804C42.35 19.1998 40.4509 17.2643 38.115 17.2643ZM21.175 17.2643C25.271 17.2643 28.5863 13.8856 28.5863 9.71118C28.5863 5.53671 25.271 2.15802 21.175 2.15802C17.079 2.15802 13.7638 5.53671 13.7638 9.71118C13.7638 13.8856 17.079 17.2643 21.175 17.2643ZM26.257 19.4224H25.7078C24.3314 20.0968 22.8028 20.5014 21.175 20.5014C19.5472 20.5014 18.0252 20.0968 16.6422 19.4224H16.093C11.8845 19.4224 8.47 22.9022 8.47 27.1913V29.1336C8.47 30.9207 9.8927 32.3707 11.6463 32.3707H30.7038C32.4573 32.3707 33.88 30.9207 33.88 29.1336V27.1913C33.88 22.9022 30.4655 19.4224 26.257 19.4224ZM11.4544 18.5187C10.6868 17.7432 9.63463 17.2643 8.47 17.2643H4.235C1.89913 17.2643 0 19.1998 0 21.5804V23.7385C0 24.9321 0.946258 25.8965 2.1175 25.8965H6.47823C6.89511 22.6999 8.78763 20.0091 11.4544 18.5187Z" fill="white"/>
</g>
<defs>
<clipPath id="clip0_2_317">
<rect width="42.35" height="34.5287" fill="white"/>
</clipPath>
</defs>
</svg>
