<svg width="470" height="474" viewBox="0 0 470 474" fill="none" xmlns="http://www.w3.org/2000/svg">
<path d="M109.444 1C75.6391 9.6506 66.2453 18.882 60.3408 40.3239L79.8126 413.046H439.617C461.992 400.98 468.856 383.004 469.248 327.559C458.141 216.299 444.586 152.878 424.379 40.3239C414.189 24.7203 411.975 14.3016 371.889 12.9681L109.444 1Z" fill="#9E9E9E"/>
<path d="M1 369.111L41.4807 61.5338C51.1681 38.3311 59.8001 27.6991 88.4383 15.7244C178.941 7.14582 252.248 5.31509 375.042 1C406.689 10.6048 425.67 15.7466 441.43 61.5338C445.189 185.598 449.144 274.143 448.717 355.204C447.424 391.221 439.489 405.554 411.474 419.828C241.702 451.297 148.797 468.264 69.0076 473C20.892 457.864 1.35302 436.986 1 369.111Z" fill="white" stroke="#BDBDBD" stroke-width="0.5"/>
</svg>
